<svg version="1.1" xmlns="http://www.w3.org/2000/svg" xmlns:xlink="http://www.w3.org/1999/xlink" width="700" height="700" viewBox="610,165.5,700,700"><defs><clipPath id="clip-1"><rect x="24.57606" y="10.84169" transform="scale(25.47195,23.01991)" width="26.539" height="26.539" id="clip-1" fill="none"/></clipPath></defs><g id="document" fill="#ffffff" fill-rule="nonzero" stroke="#000000" stroke-width="0" stroke-linecap="butt" stroke-linejoin="miter" stroke-miterlimit="10" stroke-dasharray="" stroke-dashoffset="0" font-family="none" font-weight="none" font-size="none" text-anchor="none" style="mix-blend-mode: normal"><rect x="610" y="118.21429" transform="scale(1,1.4)" width="700" height="500" id="Shape 1 1" vector-effect="non-scaling-stroke"/></g><g fill="none" fill-rule="nonzero" stroke="none" stroke-width="1" stroke-linecap="butt" stroke-linejoin="miter" stroke-miterlimit="10" stroke-dasharray="" stroke-dashoffset="0" font-family="none" font-weight="none" font-size="none" text-anchor="none" style="mix-blend-mode: normal"><g><g id="stage"><g id="layer1 1"><g clip-path="url(#clip-1)" id="Group 1"><g id="Group 1" fill="#000000"><path d="M1248.25423,263.52478h-568.48295c-29.70029,0 -53.77128,21.75381 -53.77128,48.59502v485.88117c0,26.74913 24.07099,48.54898 53.77128,48.54898h568.45748c29.62388,0 53.77128,-21.79985 53.77128,-48.54898v-485.88117c0.02547,-26.84121 -24.12194,-48.59502 -53.74581,-48.59502zM1140.71167,307.40073h84.36309v164.63837h-84.36309zM914.87737,307.40073h84.36309v280.58964h-84.36309zM702.95076,307.40073h84.31215v94.77296h-84.31215zM787.2629,802.69703h-84.31215v-283.5592h84.31215zM810.97729,490.61616h-131.68997v-62.84434h131.68997zM999.21499,802.69703h-84.36309v-97.74253h84.36309zM1022.92937,680.23113h-131.71545v-62.84434h131.71545zM1225.07476,802.69703h-84.36309v-218.02154h84.36309zM1248.76367,558.73206h-131.76639v-62.82133h131.76639z" id="CompoundPath 1"/><g id="Group 1" font-family="ui-sans-serif, system-ui, -apple-system, BlinkMacSystemFont, &quot;Segoe UI&quot;, Roboto, &quot;Helvetica Neue&quot;, Arial, &quot;Noto Sans&quot;, sans-serif, &quot;Apple Color Emoji&quot;, &quot;Segoe UI Emoji&quot;, &quot;Segoe UI Symbol&quot;, &quot;Noto Color Emoji&quot;" font-weight="400" font-size="14" text-anchor="start"/><g id="Group 1" font-family="ui-sans-serif, system-ui, -apple-system, BlinkMacSystemFont, &quot;Segoe UI&quot;, Roboto, &quot;Helvetica Neue&quot;, Arial, &quot;Noto Sans&quot;, sans-serif, &quot;Apple Color Emoji&quot;, &quot;Segoe UI Emoji&quot;, &quot;Segoe UI Symbol&quot;, &quot;Noto Color Emoji&quot;" font-weight="400" font-size="14" text-anchor="start"/><g id="Group 1" font-family="ui-sans-serif, system-ui, -apple-system, BlinkMacSystemFont, &quot;Segoe UI&quot;, Roboto, &quot;Helvetica Neue&quot;, Arial, &quot;Noto Sans&quot;, sans-serif, &quot;Apple Color Emoji&quot;, &quot;Segoe UI Emoji&quot;, &quot;Segoe UI Symbol&quot;, &quot;Noto Color Emoji&quot;" font-weight="400" font-size="14" text-anchor="start"/><g id="Group 1" font-family="ui-sans-serif, system-ui, -apple-system, BlinkMacSystemFont, &quot;Segoe UI&quot;, Roboto, &quot;Helvetica Neue&quot;, Arial, &quot;Noto Sans&quot;, sans-serif, &quot;Apple Color Emoji&quot;, &quot;Segoe UI Emoji&quot;, &quot;Segoe UI Symbol&quot;, &quot;Noto Color Emoji&quot;" font-weight="400" font-size="14" text-anchor="start"/><g id="Group 1" font-family="ui-sans-serif, system-ui, -apple-system, BlinkMacSystemFont, &quot;Segoe UI&quot;, Roboto, &quot;Helvetica Neue&quot;, Arial, &quot;Noto Sans&quot;, sans-serif, &quot;Apple Color Emoji&quot;, &quot;Segoe UI Emoji&quot;, &quot;Segoe UI Symbol&quot;, &quot;Noto Color Emoji&quot;" font-weight="400" font-size="14" text-anchor="start"/><g id="Group 1" font-family="ui-sans-serif, system-ui, -apple-system, BlinkMacSystemFont, &quot;Segoe UI&quot;, Roboto, &quot;Helvetica Neue&quot;, Arial, &quot;Noto Sans&quot;, sans-serif, &quot;Apple Color Emoji&quot;, &quot;Segoe UI Emoji&quot;, &quot;Segoe UI Symbol&quot;, &quot;Noto Color Emoji&quot;" font-weight="400" font-size="14" text-anchor="start"/><g id="Group 1" font-family="ui-sans-serif, system-ui, -apple-system, BlinkMacSystemFont, &quot;Segoe UI&quot;, Roboto, &quot;Helvetica Neue&quot;, Arial, &quot;Noto Sans&quot;, sans-serif, &quot;Apple Color Emoji&quot;, &quot;Segoe UI Emoji&quot;, &quot;Segoe UI Symbol&quot;, &quot;Noto Color Emoji&quot;" font-weight="400" font-size="14" text-anchor="start"/><g id="Group 1" font-family="ui-sans-serif, system-ui, -apple-system, BlinkMacSystemFont, &quot;Segoe UI&quot;, Roboto, &quot;Helvetica Neue&quot;, Arial, &quot;Noto Sans&quot;, sans-serif, &quot;Apple Color Emoji&quot;, &quot;Segoe UI Emoji&quot;, &quot;Segoe UI Symbol&quot;, &quot;Noto Color Emoji&quot;" font-weight="400" font-size="14" text-anchor="start"/><g id="Group 1" font-family="ui-sans-serif, system-ui, -apple-system, BlinkMacSystemFont, &quot;Segoe UI&quot;, Roboto, &quot;Helvetica Neue&quot;, Arial, &quot;Noto Sans&quot;, sans-serif, &quot;Apple Color Emoji&quot;, &quot;Segoe UI Emoji&quot;, &quot;Segoe UI Symbol&quot;, &quot;Noto Color Emoji&quot;" font-weight="400" font-size="14" text-anchor="start"/><g id="Group 1" font-family="ui-sans-serif, system-ui, -apple-system, BlinkMacSystemFont, &quot;Segoe UI&quot;, Roboto, &quot;Helvetica Neue&quot;, Arial, &quot;Noto Sans&quot;, sans-serif, &quot;Apple Color Emoji&quot;, &quot;Segoe UI Emoji&quot;, &quot;Segoe UI Symbol&quot;, &quot;Noto Color Emoji&quot;" font-weight="400" font-size="14" text-anchor="start"/><g id="Group 1" font-family="ui-sans-serif, system-ui, -apple-system, BlinkMacSystemFont, &quot;Segoe UI&quot;, Roboto, &quot;Helvetica Neue&quot;, Arial, &quot;Noto Sans&quot;, sans-serif, &quot;Apple Color Emoji&quot;, &quot;Segoe UI Emoji&quot;, &quot;Segoe UI Symbol&quot;, &quot;Noto Color Emoji&quot;" font-weight="400" font-size="14" text-anchor="start"/><g id="Group 1" font-family="ui-sans-serif, system-ui, -apple-system, BlinkMacSystemFont, &quot;Segoe UI&quot;, Roboto, &quot;Helvetica Neue&quot;, Arial, &quot;Noto Sans&quot;, sans-serif, &quot;Apple Color Emoji&quot;, &quot;Segoe UI Emoji&quot;, &quot;Segoe UI Symbol&quot;, &quot;Noto Color Emoji&quot;" font-weight="400" font-size="14" text-anchor="start"/><g id="Group 1" font-family="ui-sans-serif, system-ui, -apple-system, BlinkMacSystemFont, &quot;Segoe UI&quot;, Roboto, &quot;Helvetica Neue&quot;, Arial, &quot;Noto Sans&quot;, sans-serif, &quot;Apple Color Emoji&quot;, &quot;Segoe UI Emoji&quot;, &quot;Segoe UI Symbol&quot;, &quot;Noto Color Emoji&quot;" font-weight="400" font-size="14" text-anchor="start"/><g id="Group 1" font-family="ui-sans-serif, system-ui, -apple-system, BlinkMacSystemFont, &quot;Segoe UI&quot;, Roboto, &quot;Helvetica Neue&quot;, Arial, &quot;Noto Sans&quot;, sans-serif, &quot;Apple Color Emoji&quot;, &quot;Segoe UI Emoji&quot;, &quot;Segoe UI Symbol&quot;, &quot;Noto Color Emoji&quot;" font-weight="400" font-size="14" text-anchor="start"/><g id="Group 1" font-family="ui-sans-serif, system-ui, -apple-system, BlinkMacSystemFont, &quot;Segoe UI&quot;, Roboto, &quot;Helvetica Neue&quot;, Arial, &quot;Noto Sans&quot;, sans-serif, &quot;Apple Color Emoji&quot;, &quot;Segoe UI Emoji&quot;, &quot;Segoe UI Symbol&quot;, &quot;Noto Color Emoji&quot;" font-weight="400" font-size="14" text-anchor="start"/></g></g><path d="M658.36253,177.66596l-17.74502,78.58036h10.25268l16.85777,-8.19659l2.56317,-11.49305l-16.85777,8.0184l15.18185,-66.90912zM714.8262,234.24025l2.98215,-11.84942l-17.8436,8.55296l4.04192,-17.4623h-34.01129l-9.56259,42.76482h33.91271l1.97167,-8.90934l0.98583,-4.63286zM672.75571,246.9806l5.52067,-24.2334h13.30877l-5.52067,24.2334zM704.00666,256.24631h22.87136l17.8436,-8.55296l2.76034,-11.93851l-23.06853,11.22577h-8.08384l5.52067,-24.32249h9.06968l-1.67592,7.57294h10.1541l3.84475,-16.74955l-29.57504,-0.08909zM775.77542,244.57508l7.09801,-31.09359h-33.91271l-9.56259,42.76482h12.42152l12.32293,-6.05835l-1.38017,6.05835h10.44985l18.23794,-8.64206l2.76034,-11.84942zM752.01681,245.6442l5.22492,-22.897h13.1116l-3.549,15.85862zM800.61845,177.66596l-17.74502,78.58036h10.25268l16.85777,-8.19659l2.56317,-11.49305l-16.85777,8.0184l15.18185,-66.90912zM865.68353,244.57508l7.09801,-31.09359h-33.91271l-9.56259,42.76482h12.42152l12.32293,-6.05835l-1.38017,6.05835h10.44985l18.23794,-8.64206l2.76034,-11.84942zM841.92491,245.6442l5.22492,-22.897h13.1116l-3.549,15.85862zM925.52368,236.73486l-19.51952,9.4439l7.39376,-32.60817h-10.35126l-5.71784,25.39161l-11.63285,5.61288l6.99943,-31.00449h-10.25268l-9.66118,42.67573h10.25268l11.63285,-5.61288l-1.28158,5.61288h10.35126l19.22377,-9.17662zM958.25339,177.66596l-8.18243,36.08282h-26.91328l-9.66118,42.49754h37.26455l15.97052,-7.66203l2.66175,-11.76033l-15.97052,7.66203l15.08327,-66.82003zM925.72085,247.0697l5.52067,-24.05521h16.6606l-5.42209,24.05521zM960.42223,256.24631h11.83001l14.8861,-7.21656l2.56317,-11.49305l-16.56202,7.92931l7.19659,-31.98452h-10.35126l-7.68951,34.47914zM972.15366,204.39397h10.25268l2.16884,-9.26571h-10.25268zM1034.43375,234.24025l2.98215,-11.84942l-17.8436,8.55296l4.04192,-17.4623h-34.01129l-9.56259,42.76482h33.91271l1.97167,-8.90934l0.98583,-4.63286zM992.36326,246.9806l5.52067,-24.2334h13.30877l-5.52067,24.2334zM1085.22888,246.08967l5.81642,-25.83708l7.39376,-6.682h-14.09743l-39.23621,35.45916h14.19602l1.183,-1.06912l-1.97167,8.28568h24.15295l19.17448,-9.17662l2.61246,-10.33483zM1074.68045,247.0697h-13.21018l16.6606,-15.14587zM1145.04439,234.24025l2.98215,-11.84942l-17.8436,8.55296l4.04192,-17.4623h-34.01129l-9.56259,42.76482h33.91271l1.97167,-8.90934l0.98583,-4.63286zM1102.9739,246.9806l5.52067,-24.2334h13.30877l-5.52067,24.2334zM1186.86842,236.73486l-19.51952,9.4439l7.39376,-32.60817h-10.35126l-5.71784,25.39161l-11.63285,5.61288l6.99943,-31.00449h-10.25268l-9.66118,42.67573h10.25268l11.63285,-5.61288l-1.28158,5.61288h10.35126l19.22377,-9.17662zM1223.64004,224.26179l-13.99885,6.7711l4.04192,-17.4623h-10.35126l-9.56259,4.72195l1.08442,-4.81104h-10.25268l-9.75976,42.76482h10.35126l5.91501,-26.28255l9.56259,-4.63286l-3.94334,17.4623h10.25268l13.85098,-6.7711zM1211.81003,256.24631h22.87136l17.8436,-8.55296l2.76034,-11.93851l-23.06853,11.22577h-8.08384l5.52067,-24.32249h9.06968l-1.67592,7.57294h10.1541l3.84475,-16.74955l-29.57504,-0.08909zM1287.22637,213.57059h-30.26512l-9.75976,42.67573h24.64586l21.58978,-10.60211l2.56317,-11.58214l-26.51895,12.91854h-9.85835l0.69008,-2.58371l22.27986,-10.60211zM1262.87626,232.72566l2.26742,-9.71118h9.56259l-0.98583,4.54376zM1270.27002,254.46445z" id="CompoundPath 1" fill="#000000"/></g></g></g></g></svg>