<svg version="1.1" xmlns="http://www.w3.org/2000/svg" xmlns:xlink="http://www.w3.org/1999/xlink" width="702.99904" height="701.00007" viewBox="608.99917,164.49993,702.99904,701.00007"><defs><clipPath id="clip-1"><rect x="221.76956" y="60.07418" transform="scale(2.74609,2.73828)" width="256" height="256" id="clip-1" fill="none"/></clipPath></defs><g id="document" fill="#ffffff" fill-rule="nonzero" stroke="#000000" stroke-width="0" stroke-linecap="butt" stroke-linejoin="miter" stroke-miterlimit="10" stroke-dasharray="" stroke-dashoffset="0" font-family="none" font-weight="none" font-size="none" text-anchor="none" style="mix-blend-mode: normal"><rect x="610" y="118.21429" transform="scale(1,1.4)" width="700" height="500" id="Shape 1 1" vector-effect="non-scaling-stroke"/></g><g fill="none" fill-rule="nonzero" stroke="none" stroke-width="1" stroke-linecap="butt" stroke-linejoin="miter" stroke-miterlimit="10" stroke-dasharray="" stroke-dashoffset="0" font-family="none" font-weight="none" font-size="none" text-anchor="none" style="mix-blend-mode: normal"><g><g id="stage"><g id="layer1 1"><g clip-path="url(#clip-1)" id="Group 1"><g id="Group 1" fill="#000000"><g id="Group 1"><path d="M978.075,683.4043l57.66797,-57.50391l-57.66797,-58.87305zM978.075,344.13125v116.37695l57.66797,-57.50391zM934.41211,794.57852v-223.71758l-94.46563,94.74453l-34.32617,-34.22852l116.15977,-115.55547l-115.33594,-115.55547l34.05156,-33.95469l94.19102,94.19688v-222.62227l167.23711,163.74922l-113.13906,113.09102l113.68828,112.81719zM959.12695,191.88281h-14.27969c-134.55859,2.73828 -207.60469,64.62344 -219.41289,185.65547c-3.84453,43.26484 -6.59062,82.69609 -7.68906,117.47227v63.80195c1.92227,64.07578 10.98438,114.73398 27.18633,152.24844c34.87539,82.69609 99.13398,124.86562 193.05039,126.78242h16.20195c118.08203,-2.46445 192.50117,-57.23008 223.25742,-163.74922c41.46602,-144.58125 33.50234,-271.36367 -24.16562,-380.34727c-35.69922,-65.71875 -100.23242,-99.94727 -194.14883,-101.86406z" id="CompoundPath 1"/></g></g></g></g></g></g></g></svg>