<svg version="1.1" xmlns="http://www.w3.org/2000/svg" xmlns:xlink="http://www.w3.org/1999/xlink" width="702.00064" height="700.99968" viewBox="609.00055,165.49992,702.00064,700.99968"><defs><clipPath id="clip-1"><rect x="222.08547" y="60.43937" transform="scale(2.74219,2.73828)" width="256" height="256" id="clip-1" fill="none"/></clipPath></defs><g id="document" fill="#ffffff" fill-rule="nonzero" stroke="#000000" stroke-width="0" stroke-linecap="butt" stroke-linejoin="miter" stroke-miterlimit="10" stroke-dasharray="" stroke-dashoffset="0" font-family="none" font-weight="none" font-size="none" text-anchor="none" style="mix-blend-mode: normal"><rect x="610" y="118.21429" transform="scale(1,1.4)" width="700" height="500" id="Shape 1 1" vector-effect="non-scaling-stroke"/></g><g fill="none" fill-rule="nonzero" stroke="none" stroke-width="1" stroke-linecap="butt" stroke-linejoin="miter" stroke-miterlimit="10" stroke-dasharray="" stroke-dashoffset="0" font-family="none" font-weight="none" font-size="none" text-anchor="none" style="mix-blend-mode: normal"><g><g id="stage"><g id="layer1 1"><g clip-path="url(#clip-1)" id="Group 1"><g id="Group 1" fill="#000000"><g id="Group 1"><g id="Group 1"><path d="M884.58984,226.8375c-4.3875,0.82148 -13.1625,3.28594 -19.74375,5.47656c-32.08359,11.77461 -54.02109,35.59766 -64.71562,70.1c-4.11328,13.96523 -4.66172,38.06211 -0.82266,52.30117c3.29063,11.77461 11.24297,29.02578 17.27578,36.9668c2.46797,3.28594 63.34453,64.89727 135.18984,136.91406c139.57734,139.92617 135.18984,135.27109 140.4,154.98672c1.09687,4.38125 2.19375,12.86992 2.19375,18.62031c0,20.81094 -6.85547,37.51445 -21.9375,52.30117c-23.30859,23.27539 -56.21484,28.47813 -87.20156,13.69141c-6.85547,-3.28594 -20.56641,-16.42969 -87.75,-83.24375l-79.79766,-79.41016l11.24297,-11.22695l11.24297,-11.22695l-47.43984,-47.37227c-26.05078,-26.01367 -47.98828,-47.37227 -48.81094,-47.37227c-0.82266,0 -6.03281,4.92891 -12.06563,10.40547l-10.69453,10.6793l-31.53516,-31.76406l-32.08359,-32.03789l-10.42031,10.6793l-10.69453,10.40547l32.08359,32.03789l32.08359,32.03789l-10.69453,10.6793c-5.75859,5.75039 -10.42031,11.22695 -10.42031,12.04844c0,0.82148 21.38906,22.72773 47.43984,48.74141l47.43984,47.37227l11.24297,-11.22695l11.24297,-11.22695l77.87812,78.04102c51.00469,50.93203 81.16875,79.95781 87.47578,84.06523c18.64688,12.59609 35.37422,17.525 58.13437,17.525c18.64687,0 29.61562,-2.73828 47.98828,-11.50078c10.96875,-5.47656 15.63047,-8.7625 25.50234,-18.62031c9.87188,-9.85781 13.1625,-14.51289 18.64688,-25.46602c9.04922,-18.34648 11.51719,-29.02578 11.51719,-47.91992c0,-18.89414 -2.74219,-29.29961 -11.51719,-47.91992l-6.85547,-13.69141l-133.54453,-133.62813c-143.14219,-144.58125 -138.20625,-139.10469 -143.41641,-159.09414c-1.09687,-4.38125 -2.19375,-12.86992 -2.19375,-18.62031c0,-20.81094 6.85547,-37.78828 21.9375,-52.30117c14.80781,-14.78672 31.53516,-21.90625 52.37578,-21.90625c13.43672,0.27383 21.38906,1.64297 33.45469,7.66719c8.50078,4.10742 16.45313,11.22695 89.12109,83.79141l79.79766,79.41016l-11.24297,11.22695l-11.24297,11.22695l47.43984,47.37227c26.05078,26.01367 47.98828,47.37227 48.81094,47.37227c0.82266,0 6.03281,-4.92891 12.06562,-10.40547l10.69453,-10.6793l31.80937,31.76406l31.53516,31.49023l10.69453,-10.40547l10.42031,-10.6793l-31.53516,-31.49023l-31.80938,-31.76406l10.69453,-10.6793c5.75859,-5.75039 10.42031,-11.22695 10.42031,-12.04844c0,-0.82148 -21.38906,-22.72773 -47.43984,-48.74141l-47.43984,-47.37227l-11.24297,11.22695l-11.24297,11.22695l-77.87812,-78.04102c-77.87813,-77.76719 -87.20156,-86.25586 -103.92891,-93.37539c-16.45312,-6.8457 -41.13281,-10.13164 -58.13438,-7.39336zM1173.34219,451.92422c14.25938,14.23906 25.77656,26.56133 25.77656,27.38281c0,1.9168 -20.56641,22.45391 -22.48594,22.45391c-0.82266,0 -13.1625,-11.77461 -27.69609,-26.2875l-26.325,-26.2875l11.51719,-11.50078c6.30703,-6.29805 12.06563,-11.50078 12.33984,-11.50078c0.54844,0 12.61406,11.50078 26.87344,25.73984zM771.88594,556.80039l26.325,26.2875l-12.06563,12.04844l-12.06562,12.04844l-26.325,-26.2875c-14.53359,-14.51289 -26.325,-26.83516 -26.325,-27.65664c0,-1.9168 20.56641,-22.45391 22.48594,-22.45391c1.09687,0 13.43672,11.77461 27.97031,26.01367z" id="CompoundPath 1"/></g></g></g></g></g></g></g></g></svg>