<?xml version="1.0" encoding="UTF-8" standalone="no"?>
<svg
   version="1.1"
   width="1024"
   height="1024"
   viewBox="0 0 1024 1024"
   id="svg8"
   xmlns="http://www.w3.org/2000/svg"
   xmlns:svg="http://www.w3.org/2000/svg">
  <defs
     id="defs8" />
  <path
     d="m 411.33076,354.30882 h 200.80601 v 134.7307 h 31.623 c 15.61418,7.23094 15.61418,7.23094 20.68977,16.21883 2.03811,6.03638 1.88756,11.70678 1.85852,17.99645 0.005,1.38704 0.0121,2.77406 0.0184,4.20312 0.0163,4.65155 0.0102,9.30285 0.004,13.95443 0.006,3.33447 0.0151,6.66894 0.0245,10.0034 0.0212,9.06622 0.0221,18.13237 0.0181,27.19859 -0.002,7.57935 0.005,15.15865 0.0135,22.73798 0.0185,18.92561 0.0172,37.85116 0.006,56.77678 -0.008,16.38382 0.009,32.76749 0.0397,49.15128 0.0308,16.85681 0.0433,33.71353 0.0377,50.57035 -0.004,9.44966 9.1e-4,18.89918 0.0232,28.3488 0.0201,8.90586 0.0166,17.81146 -0.004,26.71732 -0.004,3.25021 4.8e-4,6.50043 0.0136,9.75063 0.17509,46.68062 -10.73517,85.80022 -46.06606,120.63042 -19.93275,17.5721 -52.32335,37.8015 -81.03392,37.8015 0.097,19.0969 2.0689,23.3976 2.2222,42.4942 0.07,8.8693 -56.81825,8.0485 -56.80225,-1.1898 0.034,-18.0837 -0.83675,-23.2208 -0.77025,-41.3044 -1.7371,-0.3919 -3.4742,-0.7838 -5.264,-1.1875 -2.3017,-0.5246 -4.6034,-1.0494 -6.905,-1.5744 -1.1423,-0.257 -2.2845,-0.5141 -3.4614,-0.7789 -8.2356,-1.8857 -15.89042,-4.2094 -23.50312,-7.7172 -1.1109,-0.4995 -2.2219,-0.9989 -3.3665,-1.5135 -10.5383,-4.9065 -19.615,-10.9448 -28.6518,-17.9822 -1.3595,-1.0213 -2.7189,-2.0426 -4.1196,-3.0949 -30.4043,-23.8822 -46.7899,-58.23346 -50.915,-94.50716 -1.0823,-12.2248 -0.7563,-24.55259 -0.7394,-36.80794 -0.01,-3.31711 -0.015,-6.63422 -0.024,-9.95132 -0.021,-8.94637 -0.022,-17.89265 -0.018,-26.83905 0.001,-7.48317 -0.01,-14.96633 -0.014,-22.4495 -0.018,-18.65475 -0.017,-37.30942 -0.01,-55.96416 0.01,-16.1797 -0.01,-32.35927 -0.04,-48.53894 -0.031,-16.6553 -0.043,-33.31053 -0.038,-49.96586 0,-9.33437 -9e-4,-18.66862 -0.023,-28.00296 -0.02,-8.76659 -0.017,-17.5329 0,-26.29948 0,-3.21386 -5e-4,-6.42775 -0.014,-9.64159 -0.016,-4.39113 0,-8.78138 0.016,-13.17248 -0.012,-1.26714 -0.023,-2.53432 -0.035,-3.83988 0.083,-8.62903 1.0604,-17.44601 7.4983,-24.21785 14.414,-11.75629 26.3182,-8.01311 46.8879,-8.01311 v -134.7307 z"
     fill="currentColor"
     id="path1"
     style="stroke-width:1.52169" />
  <path
     d="m 495.89758,28.602918 c 1.2887,-0.017 2.5774,-0.033 3.9051,-0.051 2.7216,-0.028 5.4433,-0.047 8.1651,-0.058 4.1273,-0.028 8.2497,-0.1193 12.3759,-0.2117 2.6558,-0.019 5.3116,-0.034 7.9675,-0.046 1.216,-0.036 2.432,-0.072 3.6848,-0.1096 15.7122,0.1174 26.2218,10.4952 36.69006,20.286 1.57923,1.4564 1.57923,1.4564 3.19036,2.9422 2.20183,2.0363 4.39778,4.0782 6.58799,6.1252 3.3369,3.1143 6.69849,6.2043 10.06323,9.2927 2.14986,1.9941 4.29827,3.9896 6.44504,5.9866 0.99487,0.9126 1.98974,1.8251 3.01477,2.7653 0.93491,0.8798 1.86984,1.7596 2.83308,2.666 0.8138,0.7572 1.62759,1.5145 2.46604,2.2947 22.95099,26.326902 8.85022,48.457802 8.85022,89.300502 -66.26599,0 -132.53199,0 -200.80601,0 0,-79.146402 0,-79.146402 10.5739,-89.973102 0.9845,-1.025 1.969,-2.0501 2.9832,-3.1062 3.0915,-2.8818 6.2034,-5.4942 9.5302,-8.1289 9.2188,-7.3787 17.602,-15.5509 26.07082,-23.6542 2.1548,-2.0579 4.3258,-4.1013 6.4971,-6.1442 1.2692,-1.2079 2.5384,-2.4157 3.846,-3.6601 7.7143,-6.1655 15.1904,-6.4168 25.0656,-6.5168 z"
     fill="currentColor"
     id="path2"
     style="stroke-width:1.52169" />
  <path
     d="m 411.33076,218.11372 c 66.26602,0 132.53202,0 200.80601,0 0,28.5131 0,57.0262 0,86.4033 -66.26599,0 -132.53199,0 -200.80601,0 0,-28.5131 0,-57.0262 0,-86.4033 z"
     fill="currentColor"
     id="path3"
     style="stroke-width:1.52169" />
  <path
     d="m 540.98508,590.08753 c 5.2178,0 10.43556,0 15.81146,0 -1.52714,4.56975 -3.14083,8.7487 -5.53402,12.99712 -2.20144,4.24793 -3.26874,8.11696 -4.38524,12.6825 -1.8166,5.70809 -4.5039,11.0562 -7.0893,16.49594 -2.6697,5.64429 -4.9703,11.25711 -6.9804,17.12379 -5.2544,14.73758 -11.5717,29.1623 -18.1323,43.43623 -2.8134,6.19361 -5.0336,12.31805 -6.8944,18.81494 -5.2178,0 -10.4356,0 -15.8115,0 7.1389,-20.84885 7.1389,-20.84885 11.9575,-30.20458 3.6785,-7.17493 6.1362,-14.43768 8.5542,-22.04704 2.7162,-8.13078 6.1526,-15.98998 9.5302,-23.90051 1.3873,-3.32419 2.7709,-6.64972 4.1505,-9.97666 0.9814,-2.36162 0.9814,-2.36162 1.9826,-4.77095 1.433,-3.46834 2.8469,-6.94176 4.2432,-10.42286 2.7322,-6.792 5.6739,-13.50496 8.5975,-20.22792 z"
     fill="#f7f7f7"
     id="path4"
     style="fill:#555555;fill-opacity:1;stroke-width:1.52169" />
  <path
     d="m 566.28343,590.08753 c 2.2688,-0.19824 4.5434,-0.34001 6.81873,-0.45764 1.26571,-0.085 2.53144,-0.1699 3.83552,-0.25742 3.57611,0.71506 3.57611,0.71506 6.21959,3.82704 2.2135,4.43799 3.74513,8.74711 5.16345,13.45478 2.12553,6.68748 4.56686,12.56264 8.12192,18.67763 1.62966,3.15254 2.63026,6.23746 3.63787,9.60483 2.4779,8.18393 6.15802,15.771 9.83278,23.54583 2.15658,4.68285 3.97978,9.3312 5.62667,14.18127 2.31074,6.5982 4.88423,13.11327 7.41781,19.64049 2.45869,6.39147 4.6338,12.78983 6.57165,19.33371 -2.30441,0.1185 -4.61082,0.20383 -6.91753,0.27459 -1.28406,0.0509 -2.56813,0.10198 -3.89111,0.15445 -1.12916,-0.14159 -2.25832,-0.28317 -3.4217,-0.42904 -3.50961,-4.87591 -4.61952,-9.0153 -6.3246,-14.64465 -1.50441,-3.62511 -3.03739,-7.21574 -4.64462,-10.80041 -3.09807,-6.92772 -5.84965,-13.87966 -8.36783,-21.00662 -1.98929,-5.45562 -4.27165,-10.79924 -6.55428,-16.15416 -0.98011,-2.32059 -1.96008,-4.64124 -2.93995,-6.96193 -1.65975,-3.91806 -3.32383,-7.83448 -4.99049,-11.75003 -4.98636,-11.8236 -9.36812,-23.77308 -13.61272,-35.83933 -0.52178,-1.44982 -1.04355,-2.89963 -1.58116,-4.39339 z"
     fill="#f8f8f8"
     id="path5"
     style="fill:#555555;fill-opacity:1;stroke-width:1.52169" />
  <path
     d="m 468.25218,590.08753 c 4.696,0 9.392,0 14.2303,0 0,40.11167 0,80.22334 0,121.55052 -4.696,0 -9.392,0 -14.2303,0 0,-40.11167 0,-80.22335 0,-121.55052 z"
     fill="#fcfcfc"
     id="path6"
     style="fill:#555555;fill-opacity:1;stroke-width:1.52169" />
  <path
     d="m 405.00616,590.08753 c 4.696,0 9.392,0 14.2304,0 0,40.11167 0,80.22334 0,121.55052 -4.6961,0 -9.3921,0 -14.2304,0 0,-40.11167 0,-80.22335 0,-121.55052 z"
     fill="#fafafa"
     id="path7"
     style="fill:#555555;fill-opacity:1;stroke-width:1.52169" />
  <path
     d="m 436.62916,590.08753 c 4.1742,0 8.3485,0 12.6492,0 0,40.11167 0,80.22334 0,121.55052 -4.1742,0 -8.3485,0 -12.6492,0 0,-40.11167 0,-80.22335 0,-121.55052 z"
     fill="#fefefe"
     id="path8"
     style="fill:#555555;fill-opacity:1;stroke-width:1.52169" />
  <path
     d="m 540.98508,590.08753 c 5.2178,0 10.43556,0 15.81146,0 -1.52714,4.56975 -3.14083,8.7487 -5.53402,12.99712 -2.20144,4.24793 -3.26874,8.11696 -4.38524,12.6825 -1.8166,5.70809 -4.5039,11.0562 -7.0893,16.49594 -2.6697,5.64429 -4.9703,11.25711 -6.9804,17.12379 -5.2544,14.73758 -11.5717,29.1623 -18.1323,43.43623 -2.8134,6.19361 -5.0336,12.31805 -6.8944,18.81494 -5.2178,0 -10.4356,0 -15.8115,0 7.1389,-20.84885 7.1389,-20.84885 11.9575,-30.20458 3.6785,-7.17493 6.1362,-14.43768 8.5542,-22.04704 2.7162,-8.13078 6.1526,-15.98998 9.5302,-23.90051 1.3873,-3.32419 2.7709,-6.64972 4.1505,-9.97666 0.9814,-2.36162 0.9814,-2.36162 1.9826,-4.77095 1.433,-3.46834 2.8469,-6.94176 4.2432,-10.42286 2.7322,-6.792 5.6739,-13.50496 8.5975,-20.22792 z"
     fill="#f7f7f7"
     id="path9"
     style="fill:#555555;fill-opacity:1;stroke-width:1.52169" />
  <path
     d="m 566.28343,590.08753 c 2.2688,-0.19824 4.5434,-0.34001 6.81873,-0.45764 1.26571,-0.085 2.53144,-0.1699 3.83552,-0.25742 3.57611,0.71506 3.57611,0.71506 6.21959,3.82704 2.2135,4.43799 3.74513,8.74711 5.16345,13.45478 2.12553,6.68748 4.56686,12.56264 8.12192,18.67763 1.62966,3.15254 2.63026,6.23746 3.63787,9.60483 2.4779,8.18393 6.15802,15.771 9.83278,23.54583 2.15658,4.68285 3.97978,9.3312 5.62667,14.18127 2.31074,6.5982 4.88423,13.11327 7.41781,19.64049 2.45869,6.39147 4.6338,12.78983 6.57165,19.33371 -2.30441,0.1185 -4.61082,0.20383 -6.91753,0.27459 -1.28406,0.0509 -2.56813,0.10198 -3.89111,0.15445 -1.12916,-0.14159 -2.25832,-0.28317 -3.4217,-0.42904 -3.50961,-4.87591 -4.61952,-9.0153 -6.3246,-14.64465 -1.50441,-3.62511 -3.03739,-7.21574 -4.64462,-10.80041 -3.09807,-6.92772 -5.84965,-13.87966 -8.36783,-21.00662 -1.98929,-5.45562 -4.27165,-10.79924 -6.55428,-16.15416 -0.98011,-2.32059 -1.96008,-4.64124 -2.93995,-6.96193 -1.65975,-3.91806 -3.32383,-7.83448 -4.99049,-11.75003 -4.98636,-11.8236 -9.36812,-23.77308 -13.61272,-35.83933 -0.52178,-1.44982 -1.04355,-2.89963 -1.58116,-4.39339 z"
     fill="#f8f8f8"
     id="path10"
     style="fill:#555555;fill-opacity:1;stroke-width:1.52169" />
  <path
     d="m 468.25218,590.08753 c 4.696,0 9.392,0 14.2303,0 0,40.11167 0,80.22334 0,121.55052 -4.696,0 -9.392,0 -14.2303,0 0,-40.11167 0,-80.22335 0,-121.55052 z"
     fill="#fcfcfc"
     id="path11"
     style="fill:#555555;fill-opacity:1;stroke-width:1.52169" />
  <path
     d="m 405.00616,590.08753 c 4.696,0 9.392,0 14.2304,0 0,40.11167 0,80.22334 0,121.55052 -4.6961,0 -9.3921,0 -14.2304,0 0,-40.11167 0,-80.22335 0,-121.55052 z"
     fill="#fafafa"
     id="path12"
     style="fill:#555555;fill-opacity:1;stroke-width:1.52169" />
  <path
     d="m 436.62916,590.08753 c 4.1742,0 8.3485,0 12.6492,0 0,40.11167 0,80.22334 0,121.55052 -4.1742,0 -8.3485,0 -12.6492,0 0,-40.11167 0,-80.22335 0,-121.55052 z"
     fill="#fefefe"
     id="path13"
     style="fill:#555555;fill-opacity:1;stroke-width:1.52169" />
</svg>
