<?xml version="1.0" standalone="no"?>
<!DOCTYPE svg PUBLIC "-//W3C//DTD SVG 20010904//EN"
 "http://www.w3.org/TR/2001/REC-SVG-20010904/DTD/svg10.dtd">
<svg version="1.0" xmlns="http://www.w3.org/2000/svg"
 width="679.000000pt" height="732.000000pt" viewBox="0 0 679.000000 732.000000"
 preserveAspectRatio="xMidYMid meet">
<metadata>
Created by potrace 1.16, written by Peter Selinger 2001-2019
</metadata>
<g transform="translate(0.000000,732.000000) scale(0.100000,-0.100000)"
fill="#000000" stroke="none">
<path d="M1375 7309 c-38 -5 -112 -21 -163 -35 -340 -92 -583 -230 -790 -448
-184 -194 -303 -406 -373 -663 -50 -187 -49 -98 -48 -2528 0 -2521 -4 -2343
69 -2567 69 -210 162 -375 308 -549 145 -172 215 -227 434 -335 157 -78 288
-124 443 -155 l120 -24 2045 0 2045 0 115 24 c152 31 238 61 396 136 181 88
343 213 463 360 157 191 252 384 323 655 l22 85 3 2353 c3 1986 1 2365 -11
2435 -54 314 -211 606 -449 834 -200 191 -477 333 -792 406 -90 21 -96 21
-2090 23 -1129 1 -2030 -2 -2070 -7z m4007 -419 c247 -42 435 -135 610 -298
185 -174 299 -367 365 -613 l28 -104 0 -2225 c0 -2108 -1 -2229 -18 -2299 -73
-302 -272 -593 -509 -748 -96 -63 -240 -126 -366 -161 l-97 -27 -1935 -3
c-2004 -3 -2014 -3 -2160 38 -375 104 -671 370 -811 728 -85 219 -79 6 -79
2478 -1 1575 3 2205 11 2245 73 356 264 635 562 822 105 66 208 110 336 144
138 37 250 39 2228 41 1667 2 1725 1 1835 -18z"/>
<path d="M1545 6529 c-116 -17 -264 -77 -373 -151 -203 -138 -344 -359 -382
-598 -14 -92 -14 -4096 1 -4227 17 -159 78 -296 194 -439 105 -130 218 -214
369 -273 162 -65 44 -61 2059 -64 l1832 -1 83 22 c179 47 278 101 400 217 145
137 247 319 272 482 7 46 10 748 8 2193 l-3 2125 -34 97 c-43 125 -114 241
-210 341 -131 137 -282 226 -452 267 -80 19 -117 20 -756 20 l-673 0 0 -275 0
-275 -470 0 -470 0 0 275 0 275 -667 -1 c-368 -1 -695 -6 -728 -10z m2335
-904 l0 -165 -470 0 -470 0 0 165 0 165 470 0 470 0 0 -165z m63 -396 c36 -28
49 -79 45 -179 l-3 -85 -575 0 -575 0 -3 85 c-4 100 9 151 45 179 25 21 36 21
533 21 497 0 508 0 533 -21z m-1375 -513 c37 -36 41 -82 42 -494 0 -380 2
-407 21 -465 51 -151 155 -260 309 -323 30 -13 55 -28 54 -33 -1 -6 -2 -68 -2
-137 l-2 -126 -37 7 c-108 20 -273 115 -379 220 -90 88 -140 161 -185 265 -54
127 -58 168 -59 607 0 386 0 405 20 443 22 43 46 60 100 70 36 7 94 -10 118
-34z m1867 4 c45 -43 46 -52 43 -511 l-3 -434 -29 -84 c-33 -94 -101 -213
-166 -290 -54 -64 -164 -149 -250 -191 -65 -33 -163 -70 -184 -70 -8 0 -10 43
-8 137 l4 138 77 38 c92 45 185 132 230 217 58 109 61 135 61 578 0 427 1 432
48 475 44 40 133 39 177 -3z m-445 -397 c0 -260 -4 -442 -10 -465 -6 -20 -26
-50 -46 -67 l-35 -31 -489 0 -489 0 -35 31 c-20 17 -40 47 -46 67 -6 23 -10
205 -10 465 l0 427 580 0 580 0 0 -427z m-475 -793 l100 0 0 -325 0 -325 -197
0 -198 0 0 328 0 327 97 -2 c54 -1 143 -2 198 -3z m95 -944 l0 -83 -85 -82
c-62 -60 -91 -81 -111 -81 -20 0 -48 21 -110 82 l-84 82 0 83 0 83 195 0 195
0 0 -84z m-1052 -617 c17 -6 40 -25 51 -42 10 -18 79 -171 151 -340 124 -290
131 -310 120 -338 -39 -93 -146 -73 -196 36 l-25 55 -135 0 -135 0 -20 -47
c-30 -71 -65 -103 -111 -103 -49 0 -88 35 -88 78 0 17 23 80 50 142 28 62 84
194 125 294 98 235 104 247 140 262 37 16 35 16 73 3z m677 -20 c19 -18 20
-36 25 -247 4 -193 8 -232 23 -260 46 -84 156 -95 222 -22 18 20 20 40 25 261
l5 239 27 27 c33 32 86 37 117 9 39 -35 44 -77 38 -305 -6 -256 -17 -301 -93
-371 -68 -63 -123 -84 -220 -84 -72 0 -89 4 -147 32 -39 19 -81 50 -101 74
-61 70 -66 102 -66 378 0 243 0 247 23 267 12 11 29 23 37 26 23 9 63 -2 85
-24z m829 17 c22 -9 50 -37 82 -82 26 -38 60 -86 74 -106 l27 -38 66 93 c84
119 106 139 152 140 29 1 43 -5 61 -27 13 -15 24 -35 24 -45 0 -24 -52 -108
-132 -214 l-67 -88 58 -82 c135 -191 154 -224 147 -259 -9 -48 -33 -68 -78
-68 -22 0 -48 5 -59 11 -11 6 -54 62 -95 125 -41 63 -79 112 -84 109 -6 -3
-43 -57 -84 -119 -41 -62 -82 -116 -91 -120 -25 -9 -74 -7 -94 4 -28 15 -44
61 -32 93 6 15 48 80 94 145 47 64 90 126 97 138 12 19 4 33 -89 159 -55 75
-101 147 -101 159 0 28 26 65 54 76 29 12 32 12 70 -4z"/>
<path d="M2505 1655 c-16 -39 -55 -145 -55 -152 0 -1 36 -3 80 -3 l80 0 -20
50 c-11 28 -31 72 -44 98 l-24 47 -17 -40z"/>
</g>
</svg>
